<svg width = "100px" height = "100px" id="Layer_1" data-name="Layer 1" xmlns="http://www.w3.org/2000/svg" viewBox="0 0 500 500"><defs><style>.cls-1{fill:#a0ddf8;}.cls-2{fill:#67c7e5;}.cls-3{fill:#f48121;}.cls-4{fill:#c96428;}.cls-5,.cls-8{fill:none;stroke-linecap:round;stroke-linejoin:round;}.cls-5{stroke:#2f2f31;stroke-width:15.18px;}.cls-6{fill:#ffd653;}.cls-7{fill:#f2b921;}.cls-8{stroke:#000;stroke-width:20px;}</style></defs><title>rubber-duck</title><circle class="cls-1" cx="90.37" cy="214.63" r="39.58"/><path class="cls-2" d="M90.37,175.06A39.47,39.47,0,0,0,75,178.17a39.59,39.59,0,0,1,0,72.93,39.58,39.58,0,1,0,15.4-76Z"/><path class="cls-3" d="M407.31,247.32c.27,1.4.56,2.78.75,4.2a76.92,76.92,0,0,1-15.84,58.23H403a62.43,62.43,0,0,0,62.43-62.43Z"/><path class="cls-4" d="M438.15,247.32a62.45,62.45,0,0,1-43.81,59.6c-.68,1-1.39,1.9-2.12,2.83H403a62.43,62.43,0,0,0,62.43-62.43Z"/><circle class="cls-1" cx="386.1" cy="102" r="30.87"/><path class="cls-2" d="M386.1,71.13a30.68,30.68,0,0,0-13.86,3.29,30.87,30.87,0,0,1,0,55.16A30.87,30.87,0,1,0,386.1,71.13Z"/><circle class="cls-1" cx="199.64" cy="77.98" r="46.22"/><path class="cls-2" d="M199.64,31.76a46.2,46.2,0,0,0-17,3.24,46.22,46.22,0,0,1,0,86,46.23,46.23,0,1,0,17-89.21Z"/><path class="cls-5" d="M390.43,324.53H376.92a77.16,77.16,0,0,0,31.14-73c-4.6-34.57-32.95-62.31-67.61-66.22A77.26,77.26,0,0,0,286,324.53H207.2a214.22,214.22,0,0,1-21.78-1.12L76.83,312.21S78.69,363.63,107,420.74a1.28,1.28,0,0,0,.11.2c16.92,26.34,36.53,47.3,67.42,47.3H390.43a72.08,72.08,0,0,0,71.86-71.86h0A72.07,72.07,0,0,0,390.43,324.53Z"/><path class="cls-6" d="M390.43,324.53H376.92a77.16,77.16,0,0,0,31.14-73c-4.6-34.57-32.95-62.31-67.61-66.22A77.26,77.26,0,0,0,286,324.53H207.2a214.22,214.22,0,0,1-21.78-1.12L76.83,312.21S78.69,363.63,107,420.74a1.28,1.28,0,0,0,.11.2c16.92,26.34,36.53,47.3,67.42,47.3H390.43a72.08,72.08,0,0,0,71.86-71.86h0A72.07,72.07,0,0,0,390.43,324.53Z"/><path class="cls-7" d="M390.43,324.53H376.92a77.24,77.24,0,0,0-35.45-139.1,78,78,0,0,0-31.05,2.27c29,8.24,51.46,33.37,55.51,63.82a77,77,0,0,1-21.21,64.4,5.05,5.05,0,0,0,3.58,8.61h0a72.07,72.07,0,0,1,71.86,71.85h0a72.08,72.08,0,0,1-71.86,71.86h42.13a72.08,72.08,0,0,0,71.86-71.86h0A72.07,72.07,0,0,0,390.43,324.53Z"/><path class="cls-8" d="M390.43,324.53H376.92a77.16,77.16,0,0,0,31.14-73c-4.6-34.57-32.95-62.31-67.61-66.22A77.26,77.26,0,0,0,286,324.53H207.2a214.22,214.22,0,0,1-21.78-1.12L76.83,312.21S78.69,363.63,107,420.74a1.28,1.28,0,0,0,.11.2c16.92,26.34,36.53,47.3,67.42,47.3H390.43a72.08,72.08,0,0,0,71.86-71.86h0A72.07,72.07,0,0,0,390.43,324.53Z"/><circle class="cls-8" cx="90.37" cy="214.63" r="39.58"/><circle class="cls-8" cx="386.1" cy="102" r="30.87"/><circle class="cls-8" cx="199.64" cy="77.98" r="46.22"/><line class="cls-8" x1="343.45" y1="251.21" x2="366.89" y2="251.21"/><line class="cls-8" x1="68.2" y1="468.24" x2="489.39" y2="468.24"/><line class="cls-8" x1="10.61" y1="468.24" x2="36.47" y2="468.24"/><path class="cls-5" d="M407.31,247.32c.27,1.4.56,2.78.75,4.2a76.92,76.92,0,0,1-15.84,58.23H403a62.43,62.43,0,0,0,62.43-62.43Z"/><path class="cls-8" d="M407.31,247.32c.27,1.4.56,2.78.75,4.2a76.92,76.92,0,0,1-15.84,58.23H403a62.43,62.43,0,0,0,62.43-62.43Z"/></svg>